<mxfile host="app.diagrams.net" modified="2022-06-28T21:00:07.083Z" agent="5.0 (X11; Linux x86_64) AppleWebKit/537.36 (KHTML, like Gecko) Chrome/102.0.0.0 Safari/537.36" etag="lWunPYC04BB-5OnTcVRq" version="20.0.1" type="github">
  <diagram id="PJ1R4q2tzQtPKioBfYwA" name="Page-1">
    <mxGraphModel dx="862" dy="520" grid="1" gridSize="10" guides="1" tooltips="1" connect="1" arrows="1" fold="1" page="1" pageScale="1" pageWidth="850" pageHeight="1100" math="0" shadow="0">
      <root>
        <mxCell id="0" />
        <mxCell id="1" parent="0" />
        <mxCell id="_ObRF_gwyfRAwJvucFcy-43" style="edgeStyle=orthogonalEdgeStyle;rounded=0;orthogonalLoop=1;jettySize=auto;html=1;exitX=1;exitY=0.25;exitDx=0;exitDy=0;entryX=0;entryY=0.25;entryDx=0;entryDy=0;fontSize=5;strokeWidth=1;dashed=1;endArrow=open;endFill=0;" edge="1" parent="1" source="_ObRF_gwyfRAwJvucFcy-3" target="_ObRF_gwyfRAwJvucFcy-6">
          <mxGeometry relative="1" as="geometry" />
        </mxCell>
        <mxCell id="_ObRF_gwyfRAwJvucFcy-44" style="edgeStyle=orthogonalEdgeStyle;rounded=0;orthogonalLoop=1;jettySize=auto;html=1;exitX=1;exitY=0.5;exitDx=0;exitDy=0;entryX=0;entryY=0.5;entryDx=0;entryDy=0;fontSize=5;strokeWidth=1;dashed=1;endArrow=open;endFill=0;" edge="1" parent="1" source="_ObRF_gwyfRAwJvucFcy-3" target="_ObRF_gwyfRAwJvucFcy-6">
          <mxGeometry relative="1" as="geometry" />
        </mxCell>
        <mxCell id="_ObRF_gwyfRAwJvucFcy-3" value="" style="rounded=0;whiteSpace=wrap;html=1;" vertex="1" parent="1">
          <mxGeometry x="240" y="120" width="80" height="80" as="geometry" />
        </mxCell>
        <mxCell id="_ObRF_gwyfRAwJvucFcy-19" value="" style="rounded=0;whiteSpace=wrap;html=1;" vertex="1" parent="1">
          <mxGeometry x="250" y="130" width="60" height="25" as="geometry" />
        </mxCell>
        <mxCell id="_ObRF_gwyfRAwJvucFcy-40" value="" style="rhombus;whiteSpace=wrap;html=1;strokeWidth=0.2;fillWeight=-1;hachureGap=8;fillStyle=cross-hatch;fillColor=#0000FF;sketch=1;fontSize=5;rotation=-45;" vertex="1" parent="1">
          <mxGeometry x="241.02" y="117.23" width="79.41" height="82.32" as="geometry" />
        </mxCell>
        <mxCell id="_ObRF_gwyfRAwJvucFcy-29" value="" style="rounded=1;whiteSpace=wrap;html=1;strokeWidth=1;fillWeight=4;hachureGap=8;hachureAngle=45;fillColor=#f8cecc;sketch=1;fontSize=5;strokeColor=#b85450;" vertex="1" parent="1">
          <mxGeometry x="220" y="200" width="240" height="90" as="geometry" />
        </mxCell>
        <mxCell id="_ObRF_gwyfRAwJvucFcy-1" value="" style="rounded=0;whiteSpace=wrap;html=1;" vertex="1" parent="1">
          <mxGeometry x="120" y="120" width="80" height="80" as="geometry" />
        </mxCell>
        <mxCell id="_ObRF_gwyfRAwJvucFcy-2" value="" style="rounded=0;whiteSpace=wrap;html=1;" vertex="1" parent="1">
          <mxGeometry x="120" y="200" width="80" height="80" as="geometry" />
        </mxCell>
        <mxCell id="_ObRF_gwyfRAwJvucFcy-4" value="" style="rounded=0;whiteSpace=wrap;html=1;" vertex="1" parent="1">
          <mxGeometry x="240" y="200" width="80" height="80" as="geometry" />
        </mxCell>
        <mxCell id="_ObRF_gwyfRAwJvucFcy-5" value="" style="rounded=0;whiteSpace=wrap;html=1;" vertex="1" parent="1">
          <mxGeometry x="360" y="150" width="80" height="80" as="geometry" />
        </mxCell>
        <mxCell id="_ObRF_gwyfRAwJvucFcy-6" value="" style="rounded=0;whiteSpace=wrap;html=1;" vertex="1" parent="1">
          <mxGeometry x="480" y="120" width="80" height="80" as="geometry" />
        </mxCell>
        <mxCell id="_ObRF_gwyfRAwJvucFcy-7" value="Non Dominated Sorting" style="text;html=1;strokeColor=none;fillColor=none;align=center;verticalAlign=middle;whiteSpace=wrap;rounded=0;" vertex="1" parent="1">
          <mxGeometry x="170" y="80" width="90" height="30" as="geometry" />
        </mxCell>
        <mxCell id="_ObRF_gwyfRAwJvucFcy-8" value="F&lt;sub&gt;1&lt;/sub&gt;" style="text;html=1;strokeColor=none;fillColor=none;align=center;verticalAlign=middle;whiteSpace=wrap;rounded=0;" vertex="1" parent="1">
          <mxGeometry x="210" y="130" width="30" height="30" as="geometry" />
        </mxCell>
        <mxCell id="_ObRF_gwyfRAwJvucFcy-9" value="F&lt;span style=&quot;font-size: 10px;&quot;&gt;2&lt;/span&gt;" style="text;html=1;strokeColor=none;fillColor=none;align=center;verticalAlign=middle;whiteSpace=wrap;rounded=0;" vertex="1" parent="1">
          <mxGeometry x="210" y="160" width="30" height="30" as="geometry" />
        </mxCell>
        <mxCell id="_ObRF_gwyfRAwJvucFcy-11" value="R&lt;span style=&quot;font-size: 10px;&quot;&gt;t&lt;/span&gt;" style="text;html=1;strokeColor=none;fillColor=none;align=center;verticalAlign=middle;whiteSpace=wrap;rounded=0;" vertex="1" parent="1">
          <mxGeometry x="200" y="280" width="30" height="30" as="geometry" />
        </mxCell>
        <mxCell id="_ObRF_gwyfRAwJvucFcy-12" value="Q&lt;span style=&quot;font-size: 10px;&quot;&gt;t&lt;/span&gt;" style="text;html=1;strokeColor=none;fillColor=none;align=center;verticalAlign=middle;whiteSpace=wrap;rounded=0;" vertex="1" parent="1">
          <mxGeometry x="90" y="225" width="30" height="30" as="geometry" />
        </mxCell>
        <mxCell id="_ObRF_gwyfRAwJvucFcy-13" value="P&lt;span style=&quot;font-size: 10px;&quot;&gt;t&lt;/span&gt;" style="text;html=1;strokeColor=none;fillColor=none;align=center;verticalAlign=middle;whiteSpace=wrap;rounded=0;" vertex="1" parent="1">
          <mxGeometry x="90" y="145" width="30" height="30" as="geometry" />
        </mxCell>
        <mxCell id="_ObRF_gwyfRAwJvucFcy-14" value="" style="rounded=0;whiteSpace=wrap;html=1;" vertex="1" parent="1">
          <mxGeometry x="130" y="130" width="60" height="60" as="geometry" />
        </mxCell>
        <mxCell id="_ObRF_gwyfRAwJvucFcy-15" value="" style="rounded=0;whiteSpace=wrap;html=1;" vertex="1" parent="1">
          <mxGeometry x="130" y="210" width="60" height="60" as="geometry" />
        </mxCell>
        <mxCell id="_ObRF_gwyfRAwJvucFcy-16" value="" style="rounded=0;whiteSpace=wrap;html=1;" vertex="1" parent="1">
          <mxGeometry x="250" y="158" width="60" height="60" as="geometry" />
        </mxCell>
        <mxCell id="_ObRF_gwyfRAwJvucFcy-17" value="" style="rounded=0;whiteSpace=wrap;html=1;" vertex="1" parent="1">
          <mxGeometry x="250" y="222" width="60" height="25" as="geometry" />
        </mxCell>
        <mxCell id="_ObRF_gwyfRAwJvucFcy-18" value="" style="rounded=0;whiteSpace=wrap;html=1;" vertex="1" parent="1">
          <mxGeometry x="250" y="249" width="60" height="25" as="geometry" />
        </mxCell>
        <mxCell id="_ObRF_gwyfRAwJvucFcy-20" value="" style="rounded=0;whiteSpace=wrap;html=1;" vertex="1" parent="1">
          <mxGeometry x="370" y="160" width="60" height="60" as="geometry" />
        </mxCell>
        <mxCell id="_ObRF_gwyfRAwJvucFcy-21" value="" style="rounded=0;whiteSpace=wrap;html=1;" vertex="1" parent="1">
          <mxGeometry x="490" y="158" width="60" height="32" as="geometry" />
        </mxCell>
        <mxCell id="_ObRF_gwyfRAwJvucFcy-22" value="" style="rounded=0;whiteSpace=wrap;html=1;" vertex="1" parent="1">
          <mxGeometry x="490" y="130" width="60" height="25" as="geometry" />
        </mxCell>
        <mxCell id="_ObRF_gwyfRAwJvucFcy-23" value="P&lt;span style=&quot;font-size: 10px;&quot;&gt;t+1&lt;/span&gt;" style="text;html=1;strokeColor=none;fillColor=none;align=center;verticalAlign=middle;whiteSpace=wrap;rounded=0;" vertex="1" parent="1">
          <mxGeometry x="505" y="90" width="30" height="30" as="geometry" />
        </mxCell>
        <mxCell id="_ObRF_gwyfRAwJvucFcy-24" value="Rejected" style="text;html=1;strokeColor=none;fillColor=none;align=center;verticalAlign=middle;whiteSpace=wrap;rounded=0;" vertex="1" parent="1">
          <mxGeometry x="355" y="240" width="90" height="30" as="geometry" />
        </mxCell>
        <mxCell id="_ObRF_gwyfRAwJvucFcy-25" value="" style="endArrow=none;dashed=1;html=1;dashPattern=1 3;strokeWidth=1;rounded=0;entryX=1;entryY=1;entryDx=0;entryDy=0;exitX=0;exitY=0;exitDx=0;exitDy=0;" edge="1" parent="1" source="_ObRF_gwyfRAwJvucFcy-2" target="_ObRF_gwyfRAwJvucFcy-6">
          <mxGeometry width="50" height="50" relative="1" as="geometry">
            <mxPoint x="230" y="200" as="sourcePoint" />
            <mxPoint x="410" y="180" as="targetPoint" />
          </mxGeometry>
        </mxCell>
        <mxCell id="_ObRF_gwyfRAwJvucFcy-26" value="" style="shape=curlyBracket;whiteSpace=wrap;html=1;rounded=1;flipH=1;" vertex="1" parent="1">
          <mxGeometry x="324" y="200" width="16" height="80" as="geometry" />
        </mxCell>
        <mxCell id="_ObRF_gwyfRAwJvucFcy-28" value="" style="shape=curlyBracket;whiteSpace=wrap;html=1;rounded=1;" vertex="1" parent="1">
          <mxGeometry x="347" y="200" width="10" height="30" as="geometry" />
        </mxCell>
        <mxCell id="_ObRF_gwyfRAwJvucFcy-33" value="" style="rhombus;whiteSpace=wrap;html=1;strokeWidth=0.2;fillWeight=-1;hachureGap=8;fillStyle=cross-hatch;fillColor=#0000FF;sketch=1;fontSize=5;rotation=-45;" vertex="1" parent="1">
          <mxGeometry x="115" y="115" width="90" height="90" as="geometry" />
        </mxCell>
        <mxCell id="_ObRF_gwyfRAwJvucFcy-34" value="" style="rhombus;whiteSpace=wrap;html=1;strokeWidth=0.3;fillWeight=-1;hachureGap=8;fillStyle=cross-hatch;fillColor=#63AB8C;sketch=1;fontSize=5;rotation=-45;" vertex="1" parent="1">
          <mxGeometry x="237.5" y="143.96" width="85" height="85" as="geometry" />
        </mxCell>
        <mxCell id="_ObRF_gwyfRAwJvucFcy-36" value="" style="rhombus;whiteSpace=wrap;html=1;strokeWidth=0.4;fillWeight=-1;hachureGap=8;fillStyle=cross-hatch;fillColor=#5B9BAB;sketch=1;fontSize=5;rotation=-45;" vertex="1" parent="1">
          <mxGeometry x="360" y="147.5" width="85" height="85" as="geometry" />
        </mxCell>
        <mxCell id="_ObRF_gwyfRAwJvucFcy-37" value="" style="rhombus;whiteSpace=wrap;html=1;strokeWidth=0.3;fillWeight=-1;hachureGap=8;fillStyle=cross-hatch;fillColor=#0000FF;sketch=1;fontSize=5;rotation=-45;" vertex="1" parent="1">
          <mxGeometry x="479.38" y="119.53" width="82.13" height="80.88" as="geometry" />
        </mxCell>
        <mxCell id="_ObRF_gwyfRAwJvucFcy-38" value="" style="rhombus;whiteSpace=wrap;html=1;strokeWidth=0.4;fillWeight=-1;hachureGap=8;fillStyle=cross-hatch;fillColor=#FFD966;sketch=1;fontSize=5;rotation=-45;" vertex="1" parent="1">
          <mxGeometry x="116" y="197.5" width="85" height="85" as="geometry" />
        </mxCell>
        <mxCell id="_ObRF_gwyfRAwJvucFcy-39" value="" style="rhombus;whiteSpace=wrap;html=1;strokeWidth=0.4;fillWeight=-1;hachureGap=8;fillStyle=cross-hatch;fillColor=#FFD966;sketch=1;fontSize=5;rotation=-45;" vertex="1" parent="1">
          <mxGeometry x="238.02" y="206.26" width="82.5" height="80" as="geometry" />
        </mxCell>
        <mxCell id="_ObRF_gwyfRAwJvucFcy-42" value="Crowding Distance" style="text;html=1;strokeColor=none;fillColor=none;align=center;verticalAlign=middle;whiteSpace=wrap;rounded=0;" vertex="1" parent="1">
          <mxGeometry x="370" y="80" width="90" height="30" as="geometry" />
        </mxCell>
      </root>
    </mxGraphModel>
  </diagram>
</mxfile>
